:SAMPLES-PER-SECOND 30
:FULLY-SPECIFIED
:DEGREES
1220
root  10.4227 39.1195 25.0987 -34.8096 87.2742 -34.3854
RightUpLeg  -16.5695 -17.3952 -6.41293
RightLeg  23.1155 -1.50147 -0.924368
RightFoot  -1.60706 -0.356867 4.05945
RightToes  0.000481921 0.542163 -0.142578
Spine  38.2609 -2.25187 6.02688
Spine1  -5.87642 -0.47165 0.447898
HEad  -26.9283 8.36022 -6.79824
LeftShoulder1  8.6472 -14.6438 -41.3182
LeftArm  5.20262 -7.6408 -42.3841
LeftForeArm  -176.586 -61.7528 -162.862
LeftHand  -0.25398 0.0180481 5.50724
RightShoulder  4.73741 10.0965 28.8453
RightArm  2.60871 4.13851 44.3074
RightForeArm  162.999 62.1866 160.593
RightHand  -1.52528 4.0929 -18.8493
LeftUpLeg  -17.638 11.5086 10.3567
LeftLeg  28.3512 6.77336 4.29037
LeftFoot  -3.14502 0.595229 -8.03227
LeftToes  1.06245e-005 4.65868e-005 -8.65517e-006
1221
root  10.5817 39.2691 24.4631 -21.9742 87.1684 -21.9173
RightUpLeg  -15.7786 -16.4023 -7.88139
RightLeg  20.891 -2.11184 -1.10606
RightFoot  -0.10879 -0.473642 4.80744
RightToes  0.000481921 0.542163 -0.142578
Spine  37.3022 -2.02725 4.96361
Spine1  -5.60527 -0.556114 0.30436
HEad  -25.9808 8.56288 -6.60511
LeftShoulder1  8.62366 -14.5731 -41.3709
LeftArm  5.44258 -7.23583 -42.4766
LeftForeArm  -176.741 -61.8496 -162.781
LeftHand  -0.25398 0.0180481 5.50724
RightShoulder  4.71778 10.0455 28.8315
RightArm  2.81432 3.94143 44.2102
RightForeArm  163.178 62.2887 160.531
RightHand  -1.53915 4.17506 -18.8599
LeftUpLeg  -15.9285 13.6982 8.60142
LeftLeg  25.2894 5.90062 3.36841
LeftFoot  -4.66525 0.439921 -7.03009
LeftToes  1.06245e-005 4.65868e-005 -8.65517e-006
1222
root  10.7234 39.4199 23.8428 -8.91763 87.7049 -8.98309
RightUpLeg  -14.5408 -15.9276 -9.747
RightLeg  18.6177 -3.05124 -1.32886
RightFoot  1.4167 -0.622093 5.64312
RightToes  0.000481921 0.542163 -0.142578
Spine  36.519 -1.82625 3.53111
Spine1  -5.49232 -0.867871 0.763383
HEad  -25.4255 8.46477 -6.42509
LeftShoulder1  8.59398 -14.5839 -41.1907
LeftArm  5.92962 -7.10752 -42.5793
LeftForeArm  -176.836 -61.9554 -162.698
LeftHand  -0.25398 0.0180481 5.50724
RightShoulder  4.74691 10.097 28.9153
RightArm  2.72397 3.27962 44.0358
RightForeArm  163.374 62.1636 160.647
RightHand  -1.5521 4.28259 -18.8123
LeftUpLeg  -15.111 15.2769 6.65497
LeftLeg  23.6744 4.75765 2.61644
LeftFoot  -5.44652 0.303931 -5.29696
LeftToes  1.06245e-005 4.65868e-005 -8.65517e-006
1223
root  10.8549 39.5317 23.2372 5.50179 88.5062 5.6937
RightUpLeg  -12.8525 -15.9167 -11.6576
RightLeg  16.6087 -3.40583 -1.14097
RightFoot  2.88789 -0.847724 6.93394
RightToes  0.000481921 0.542163 -0.142578
Spine  35.7681 -1.84115 2.78088
Spine1  -5.39767 -1.14402 0.849143
HEad  -24.7545 7.8683 -6.04643
LeftShoulder1  8.53123 -14.6872 -40.6122
LeftArm  6.65528 -7.30906 -42.8
LeftForeArm  -176.938 -62.3033 -162.441
LeftHand  -0.25398 0.0180481 5.50724
RightShoulder  4.8087 10.176 29.1714
RightArm  2.35025 2.08534 43.9544
RightForeArm  163.326 61.9618 160.798
RightHand  -1.5783 4.39699 -18.9062
LeftUpLeg  -14.453 16.2382 5.13499
LeftLeg  22.8663 3.4389 1.92917
LeftFoot  -5.05943 0.265463 -4.28665
LeftToes  1.06245e-005 4.65868e-005 -8.65517e-006
1224
root  10.9845 39.6413 22.6229 13.3112 88.7762 13.7658
RightUpLeg  -11.5063 -15.8678 -13.0325
RightLeg  14.9162 -3.96229 -0.921554
RightFoot  4.8809 -1.0992 7.94022
RightToes  0.000481921 0.542163 -0.142578
Spine  34.8322 -1.85242 2.91868
Spine1  -5.24551 -1.03395 0.200216
HEad  -23.6261 7.08017 -5.76133
LeftShoulder1  8.47203 -14.7351 -40.1893
LeftArm  7.31308 -7.50698 -42.9023
LeftForeArm  -177.079 -62.6773 -162.157
LeftHand  -0.25398 0.0180481 5.50724
RightShoulder  4.81709 10.1336 29.3459
RightArm  2.23871 0.885784 44.1246
RightForeArm  163.277 61.9294 160.818
RightHand  -1.61794 4.53272 -19.1136
LeftUpLeg  -13.5493 17.0763 4.07569
LeftLeg  21.9191 2.57565 1.48494
LeftFoot  -4.68464 0.237326 -3.59034
LeftToes  1.06245e-005 4.65868e-005 -8.65517e-006
1225
root  11.1048 39.7798 22.01 2.48012 88.2283 2.94997
RightUpLeg  -11.1707 -15.7944 -13.5075
RightLeg  13.7648 -5.99449 -1.18312
RightFoot  7.70996 -1.22853 7.64726
RightToes  0.000481921 0.542163 -0.142578
Spine  33.7609 -1.63441 3.33272
Spine1  -5.10204 -0.603134 -0.458262
HEad  -22.5271 6.71544 -5.91762
LeftShoulder1  8.41671 -14.6078 -40.2099
LeftArm  7.4483 -7.28049 -42.7534
LeftForeArm  -177.167 -62.7291 -162.11
LeftHand  -0.25398 0.0180481 5.50724
RightShoulder  4.78626 10.0537 29.3265
RightArm  2.72277 0.317506 44.4674
RightForeArm  163.68 62.1308 160.703
RightHand  -1.61471 4.54501 -19.0532
LeftUpLeg  -12.5925 17.8109 3.36672
LeftLeg  20.6973 2.71711 1.43679
LeftFoot  -4.90666 0.169179 -2.48071
LeftToes  1.06245e-005 4.65868e-005 -8.65517e-006
1226
root  11.2061 39.9374 21.4638 -6.1687 87.3037 -5.66313
RightUpLeg  -11.5844 -16.3582 -13.1758
RightLeg  13.8389 -7.9484 -1.74435
RightFoot  10.2232 -1.18123 6.56108
RightToes  0.000481921 0.542163 -0.142578
Spine  32.8978 -1.26286 3.34165
Spine1  -4.91465 -0.214825 -0.541864
HEad  -22.0125 6.93229 -6.32849
LeftShoulder1  8.34014 -14.4354 -40.2287
LeftArm  6.9405 -6.56518 -42.5789
LeftForeArm  -177.235 -62.5136 -162.262
LeftHand  -0.25398 0.0180481 5.50724
RightShoulder  4.79309 10.0901 29.281
RightArm  3.49452 0.381006 44.886
RightForeArm  164.553 62.411 160.572
RightHand  -1.53701 4.33188 -18.5444
LeftUpLeg  -11.52 17.8756 3.09976
LeftLeg  19.3657 3.78334 1.38761
LeftFoot  -4.97478 0.104952 -1.35419
LeftToes  1.06245e-005 4.65868e-005 -8.65517e-006
1227
root  11.287 40.0893 21.0191 -11.2069 86.6441 -10.4353
RightUpLeg  -12.3453 -17.6905 -12.0995
RightLeg  16.0132 -7.23083 -2.23091
RightFoot  10.4666 -1.06732 5.90792
RightToes  0.000481921 0.542163 -0.142578
Spine  32.3006 -0.968318 3.04551
Spine1  -4.57982 -0.059167 -0.208934
HEad  -21.9137 7.31505 -6.53367
LeftShoulder1  8.25084 -14.3877 -39.874
LeftArm  6.16483 -5.70202 -42.5589
LeftForeArm  -177.434 -62.3646 -162.351
LeftHand  -0.25398 0.0180481 5.50724
RightShoulder  4.83309 10.1828 29.3354
RightArm  4.11614 0.546679 45.4215
RightForeArm  165.367 62.5971 160.506
RightHand  -1.46352 4.13459 -18.0379
LeftUpLeg  -10.151 17.1979 3.34697
LeftLeg  17.9107 5.19112 0.856397
LeftFoot  -4.51051 0.0653437 -0.647123
LeftToes  1.06245e-005 4.65868e-005 -8.65517e-006
1228
root  11.3503 40.2222 20.6627 -15.951 86.447 -14.9432
RightUpLeg  -13.2923 -18.2609 -10.5377
RightLeg  20.0744 -5.73199 -2.56569
RightFoot  7.97265 -0.859231 5.34493
RightToes  0.000481921 0.542163 -0.142578
Spine  31.6654 -0.8487 2.7338
Spine1  -4.15583 -0.119204 0.243058
HEad  -21.7933 7.53834 -6.36014
LeftShoulder1  8.16929 -14.4022 -39.4059
LeftArm  5.54384 -5.03249 -42.5148
LeftForeArm  -177.679 -62.3703 -162.324
LeftHand  -0.25398 0.0180481 5.50724
RightShoulder  4.85133 10.1976 29.4325
RightArm  4.54487 0.44475 46.0687
RightForeArm  165.666 62.6429 160.5
RightHand  -1.47388 4.20985 -18.0236
LeftUpLeg  -8.7807 16.2191 3.77366
LeftLeg  16.2632 6.51534 -0.0964231
LeftFoot  -3.97717 0.0259571 -0.0539888
LeftToes  1.06245e-005 4.65868e-005 -8.65517e-006
1229
root  11.399 40.3339 20.3867 -22.3025 86.6863 -21.243
RightUpLeg  -13.9095 -17.989 -8.6896
RightLeg  24.1778 -5.93417 -3.12965
RightFoot  4.23098 -0.621073 4.76841
RightToes  0.000481921 0.542163 -0.142578
Spine  30.983 -0.888768 2.38068
Spine1  -3.83734 -0.379874 0.839983
HEad  -21.6147 7.63902 -5.98047
LeftShoulder1  8.11449 -14.349 -39.2436
LeftArm  5.18077 -4.59375 -42.2258
LeftForeArm  -177.712 -62.3259 -162.353
LeftHand  -0.25398 0.0180481 5.50724
RightShoulder  4.8566 10.1773 29.5253
RightArm  4.89397 0.0599492 46.6293
RightForeArm  165.562 62.5789 160.54
RightHand  -1.52734 4.39376 -18.3232
LeftUpLeg  -7.75569 14.717 4.17006
LeftLeg  14.6595 7.97409 -1.10327
LeftFoot  -3.62669 -0.0134726 0.503032
LeftToes  1.06245e-005 4.65868e-005 -8.65517e-006
1230
root  11.4453 40.4255 20.1949 -34.9169 87.1798 -33.7356
RightUpLeg  -13.4946 -18.0329 -6.55426
RightLeg  26.4446 -5.81828 -3.35459
RightFoot  0.952132 -0.652212 6.16345
RightToes  0.000481921 0.542163 -0.142578
Spine  30.6014 -1.04087 2.06962
Spine1  -3.73055 -0.753186 1.5563
HEad  -21.4847 7.65016 -5.62367
LeftShoulder1  8.10698 -14.2762 -39.3805
LeftArm  5.02399 -4.20981 -41.842
LeftForeArm  -177.509 -62.1444 -162.502
LeftHand  -0.25398 0.0180481 5.50724
RightShoulder  4.88536 10.212 29.6472
RightArm  5.10444 -0.566381 46.8985
RightForeArm  165.514 62.4537 160.633
RightHand  -1.53785 4.41199 -18.4119
LeftUpLeg  -7.0039 13.3015 4.57263
LeftLeg  13.4641 8.74169 -1.83608
LeftFoot  -3.30174 -0.0283913 0.695228
LeftToes  1.06245e-005 4.65868e-005 -8.65517e-006
1231
root  11.5135 40.4704 20.08 -53.4859 87.6185 -52.1777
RightUpLeg  -12.2993 -18.1492 -4.25994
RightLeg  26.4863 -2.77551 -1.74054
RightFoot  -1.13654 -0.825986 9.12021
RightToes  0.000481921 0.542163 -0.142578
Spine  30.2362 -1.16868 1.8347
Spine1  -3.66457 -1.04389 2.07884
HEad  -21.2343 7.45945 -5.32415
LeftShoulder1  8.11289 -14.2632 -39.4439
LeftArm  5.09589 -3.72218 -41.7499
LeftForeArm  -177.283 -61.9624 -162.652
LeftHand  -0.25398 0.0180481 5.50724
RightShoulder  4.92264 10.2529 29.8156
RightArm  5.14306 -1.3888 46.8886
RightForeArm  165.715 62.3435 160.738
RightHand  -1.50767 4.34009 -18.1897
LeftUpLeg  -6.64532 12.5879 4.83461
LeftLeg  13.0005 8.49895 -2.17972
LeftFoot  -3.13296 -0.0276529 0.666752
LeftToes  1.06245e-005 4.65868e-005 -8.65517e-006
